<svg width="73" height="89" viewBox="0 0 73 89" fill="none" xmlns="http://www.w3.org/2000/svg">
<g id="logo 4" clip-path="url(#clip0_17_872)">
<g id="Group">
<path id="Vector" d="M42.1603 88.0971C38.8454 80.8328 35.4945 73.5865 32.2514 66.2922C31.9163 65.5344 31.8086 64.2415 32.2275 63.6402C35.1116 59.5269 36.6733 54.9747 37.0084 49.8271C41.5799 49.8271 46.0197 49.8271 50.6091 49.8271C50.9681 51.7094 51.1716 53.6036 51.7041 55.3957C52.3264 57.4884 52.7572 59.9178 54.1155 61.4453C56.5209 64.1453 55.8867 66.2621 54.4745 69.0884C51.3571 75.3184 48.6345 81.7469 45.7444 88.0911C45.547 88.0911 45.3435 88.0911 45.1461 88.0911C45.1461 82.6068 45.0504 77.1165 45.2179 71.6321C45.2598 70.3513 45.9658 68.9321 46.7497 67.8617C48.2276 65.8411 48.2935 63.6703 46.5642 61.9744C44.9965 60.429 42.5851 60.435 40.9516 61.9865C39.2881 63.562 39.4557 65.9313 40.9994 67.8978C41.8132 68.9321 42.5372 70.3633 42.5791 71.6382C42.7826 77.1165 42.7167 82.6068 42.7526 88.0911C42.5552 88.0971 42.3577 88.0971 42.1603 88.0971Z" fill="black"/>
<path id="Vector_2" d="M53.3557 41.3906C53.3557 43.1887 53.3557 44.674 53.3557 46.43C47.1207 46.43 40.9516 46.43 34.5791 46.43C34.5791 44.8664 34.5791 43.2247 34.5791 41.3906C40.7302 41.3906 46.9113 41.3906 53.3557 41.3906Z" fill="black"/>
</g>
<path id="Vector_3" d="M14.4382 89.3008H22.4442V0.300781H-0.22168V74.5677C-0.22168 82.704 6.33635 89.3008 14.4382 89.3008Z" fill="#FCC10A"/>
<path id="Vector_4" d="M56.3416 0.300781H27.9194V10.9748H46.5823C49.2271 10.9748 51.3692 13.1276 51.3692 15.7856V16.6876C51.3692 19.3456 49.2271 21.4984 46.5823 21.4984H27.9194V32.7738H56.3416C64.6049 32.7738 71.3006 26.0446 71.3006 17.74V15.3346C71.3006 7.0299 64.5989 0.300781 56.3416 0.300781Z" fill="#FCC10A"/>
</g>
<defs>
<clipPath id="clip0_17_872">
<rect width="73" height="89" fill="white"/>
</clipPath>
</defs>
</svg>
