<svg width="141" height="148" viewBox="0 0 141 148" fill="none" xmlns="http://www.w3.org/2000/svg">
<g id="Vector">
<path d="M69 0H113.5C128.688 0 141 12.3122 141 27.5C141 42.6878 128.688 55 113.5 55H69V0Z" fill="#FCC10A"/>
<path d="M69 20H100.5C105.194 20 109 23.8056 109 28.5C109 33.1944 105.194 37 100.5 37H69V20Z" fill="white"/>
<path d="M105.717 69H74.0189V78.1986H105.717V69Z" fill="black"/>
<path d="M101.491 83.0685H78.2453C78.2453 94.7562 72.0818 104.532 69 107.959L87.7547 148V114.993C83.1057 113.262 82.6478 108.861 83 106.877C84.2679 102.548 88.4591 101.466 90.3962 101.466C93.3547 101.466 95.8553 105.073 96.7358 106.877C96.7358 112.504 93.566 114.632 91.9811 114.993V148L111 107.959C103.815 101.899 101.667 88.8402 101.491 83.0685Z" fill="black"/>
<path d="M92.5094 108.5C92.5094 109.994 91.3268 111.205 89.8679 111.205C88.4091 111.205 87.2264 109.994 87.2264 108.5C87.2264 107.006 88.4091 105.795 89.8679 105.795C91.3268 105.795 92.5094 107.006 92.5094 108.5Z" fill="black"/>
<path d="M0 0H60V148H30C13.4315 148 0 134.569 0 118V0Z" fill="#FCC10A"/>
</g>
</svg>
